<?xml version="1.0" standalone="no"?>
<!DOCTYPE svg PUBLIC "-//W3C//DTD SVG 20010904//EN"
 "http://www.w3.org/TR/2001/REC-SVG-20010904/DTD/svg10.dtd">
<svg version="1.0" xmlns="http://www.w3.org/2000/svg"
 width="500.000000pt" height="500.000000pt" viewBox="0 0 500.000000 500.000000"
 preserveAspectRatio="xMidYMid meet">
<metadata>
Created by potrace 1.14, written by Peter Selinger 2001-2017
</metadata>
<g transform="translate(0.000000,500.000000) scale(0.100000,-0.100000)"
fill="#000000" stroke="none">
<path d="M3080 4689 c-158 -25 -296 -134 -351 -277 -13 -34 -24 -89 -27 -138
-7 -133 35 -245 128 -334 56 -53 68 -61 140 -97 49 -24 67 -27 164 -29 71 -1
118 3 135 12 14 7 53 25 86 40 258 121 313 485 105 694 -103 103 -243 151
-380 129z"/>
<path d="M2025 3963 c-107 -14 -498 -135 -562 -174 -47 -29 -76 -82 -76 -139
1 -61 24 -104 72 -136 50 -33 96 -33 186 -1 87 31 257 86 282 90 10 2 25 7 33
10 70 28 319 33 407 8 48 -13 48 -18 12 -126 -11 -33 -23 -73 -28 -90 -47
-157 -65 -211 -71 -220 -5 -5 -9 -14 -9 -20 -1 -21 -63 -210 -72 -219 -8 -9
-73 -10 -115 -2 -45 9 -226 20 -335 20 -109 1 -118 0 -157 -26 -22 -15 -53
-49 -68 -75 -27 -45 -66 -162 -84 -253 -5 -25 -12 -56 -15 -70 -9 -41 -25
-143 -30 -180 -2 -19 -6 -48 -9 -65 -7 -39 -26 -196 -32 -260 -3 -27 -6 -51
-7 -52 -2 -1 -82 51 -179 116 -185 123 -224 141 -310 143 -87 1 -221 -57 -289
-125 -29 -28 -31 -35 -27 -83 3 -39 11 -58 31 -78 14 -14 30 -26 34 -26 4 0
20 -10 35 -23 l28 -22 -26 -52 c-35 -70 -28 -125 21 -173 27 -26 43 -33 85
-36 33 -3 61 1 80 11 23 12 35 13 50 5 26 -14 102 -15 125 -3 14 8 57 -16 219
-124 110 -74 210 -141 221 -148 27 -20 45 -32 448 -302 191 -128 350 -233 353
-233 3 0 11 -6 19 -13 7 -8 70 -51 140 -98 l127 -84 -7 -35 c-19 -92 -1 -151
55 -183 41 -25 76 -28 125 -11 32 10 80 13 80 3 0 -1 18 -3 40 -4 23 -1 64
-16 95 -33 83 -47 138 -64 210 -64 162 0 303 112 285 228 -5 36 -14 51 -48 79
-52 43 -365 255 -377 255 -5 0 -10 4 -12 8 -3 8 -323 223 -343 231 -5 2 -12 7
-15 11 -3 3 -219 149 -480 324 -261 175 -479 322 -484 326 -4 5 2 17 15 27 94
73 111 106 124 228 7 69 13 123 21 180 3 22 7 51 9 65 6 42 17 114 21 135 3
11 7 38 10 60 5 37 29 70 44 60 3 -2 42 -6 86 -9 228 -16 294 -24 309 -36 10
-8 173 -71 190 -74 6 -1 15 -5 22 -9 6 -4 23 -8 37 -9 14 -1 26 -5 26 -9 0 -4
12 -9 28 -12 15 -3 68 -14 117 -26 50 -12 113 -24 140 -27 54 -6 90 -11 90
-14 0 -1 23 -3 50 -6 28 -3 64 -7 80 -9 17 -2 41 -4 54 -4 21 -1 23 -4 16 -37
-3 -20 -11 -48 -17 -63 -6 -14 -34 -93 -63 -176 -29 -82 -78 -221 -109 -308
-63 -177 -69 -232 -36 -297 53 -103 160 -145 270 -104 81 30 114 75 165 224
15 41 29 82 32 90 3 8 7 20 9 25 1 6 17 48 34 95 18 47 33 90 35 95 1 6 5 19
9 30 5 11 12 34 18 50 5 17 14 39 18 50 16 38 122 350 142 415 29 99 17 174
-37 238 -43 51 -110 72 -302 93 -57 6 -103 12 -103 13 0 1 6 22 14 47 24 73
77 247 80 261 2 7 6 20 9 28 3 8 10 31 16 50 5 19 26 88 46 154 l37 119 111
-6 c133 -6 244 -33 341 -82 104 -52 98 -47 272 -219 88 -87 169 -163 179 -168
26 -15 90 -11 130 8 66 31 95 131 57 194 -13 22 -102 118 -198 214 -56 56
-172 156 -182 156 -3 0 -13 6 -21 14 -25 21 -140 81 -201 103 -122 46 -246 66
-419 67 -119 2 -166 6 -169 14 -8 25 -74 52 -287 117 -213 66 -289 85 -333 85
-23 0 -82 13 -130 29 -48 16 -112 34 -142 40 -30 6 -68 13 -85 17 -36 7 -267
13 -310 7z"/>
</g>
</svg>
